<svg width="121" height="121" viewBox="0 0 121 121" fill="none" xmlns="http://www.w3.org/2000/svg">
<path d="M34.0312 79.4062H11.3438C7.17303 79.4062 3.78125 76.0145 3.78125 71.8437V49.1562C3.78125 44.9855 7.17303 41.5937 11.3438 41.5937H34.0312C38.202 41.5937 41.5938 44.9855 41.5938 49.1562V71.8437C41.5938 76.0145 38.202 79.4062 34.0312 79.4062ZM11.3438 49.1562V71.8437H34.0312V49.1562H11.3438ZM60.5 113.437C59.1312 113.437 57.775 113.387 56.4314 113.286C39.9754 112.031 24.8201 102.956 15.885 89.0106L22.2564 84.9269C26.0534 90.8392 31.1653 95.7941 37.1932 99.4049C43.221 103.016 50.0017 105.185 57.0061 105.743C58.1581 105.831 59.3228 105.875 60.5 105.875V113.437ZM86.9688 113.437L79.0281 109.656C72.6 106.631 68.0625 99.825 68.0625 92.6406V68.0625H105.875V92.6406C105.875 99.825 101.716 106.631 94.9094 109.656L86.9688 113.437ZM75.625 75.625V92.6406C75.625 97.1781 78.2719 100.959 82.0531 102.85L86.9688 105.119L91.8844 102.85C95.6656 100.959 98.3125 96.8 98.3125 92.6406V75.625H75.625ZM103.236 45.375C104.952 50.2226 105.875 55.2856 105.875 60.5H113.438C113.438 55.3197 112.685 50.2604 111.229 45.375H103.236ZM102.094 37.8125H90.75C86.5793 37.8125 83.1875 34.4207 83.1875 30.25V18.9062C83.1875 14.7355 86.5793 11.3437 90.75 11.3437H102.094C106.264 11.3437 109.656 14.7355 109.656 18.9062V30.25C109.656 34.4207 106.264 37.8125 102.094 37.8125ZM90.75 18.9062V30.25H102.094V18.9062H90.75ZM75.625 9.77074C70.7167 8.30683 65.6219 7.56299 60.5 7.56249C51.6079 7.54383 42.8554 9.77341 35.0559 14.044C27.2564 18.3146 20.6631 24.4876 15.8888 31.9894L22.2564 36.0731C27.76 27.4243 36.0387 20.902 45.7354 17.5754C55.432 14.2488 65.9712 14.3154 75.625 17.7643V9.77074Z" fill="#333333"/>
</svg>
