<svg width="64" height="64" viewBox="0 0 64 64" fill="none" xmlns="http://www.w3.org/2000/svg">
<g clip-path="url(#clip0_150_6)">
<path d="M32 3.55566C26.3742 3.55566 20.8748 5.2239 16.1971 8.34942C11.5194 11.4749 7.87365 15.9173 5.72076 21.1149C3.56787 26.3124 3.00457 32.0317 4.10211 37.5493C5.19964 43.067 7.90871 48.1353 11.8867 52.1134C15.8648 56.0914 20.9331 58.8005 26.4508 59.898C31.9684 60.9955 37.6877 60.4322 42.8852 58.2793C48.0828 56.1265 52.5252 52.4807 55.6507 47.803C58.7762 43.1253 60.4444 37.6259 60.4444 32.0001C60.4444 24.4562 57.4476 17.2212 52.1133 11.8868C46.7789 6.55248 39.5439 3.55566 32 3.55566ZM32 56.889C27.0774 56.889 22.2654 55.4293 18.1725 52.6945C14.0795 49.9596 10.8894 46.0725 9.00566 41.5247C7.12188 36.9768 6.629 31.9725 7.58934 27.1445C8.54969 22.3166 10.9201 17.8818 14.4009 14.401C17.8817 10.9202 22.3164 8.5498 27.1444 7.58945C31.9724 6.62911 36.9767 7.12199 41.5246 9.00577C46.0724 10.8896 49.9595 14.0796 52.6944 18.1726C55.4292 22.2655 56.8889 27.0775 56.8889 32.0001C56.8889 38.6011 54.2667 44.9316 49.5991 49.5992C44.9315 54.2668 38.6009 56.889 32 56.889Z" fill="#3474D2"/>
<path d="M33.6356 32.711V19.111C33.6356 18.6395 33.4483 18.1873 33.1149 17.854C32.7815 17.5206 32.3293 17.3333 31.8578 17.3333C31.3863 17.3333 30.9341 17.5206 30.6007 17.854C30.2673 18.1873 30.08 18.6395 30.08 19.111V34.6133L40.5689 41.7244C40.7621 41.8697 40.9829 41.9741 41.2179 42.0311C41.4528 42.0882 41.6969 42.0968 41.9352 42.0563C42.1736 42.0158 42.4012 41.9271 42.6041 41.7957C42.807 41.6642 42.981 41.4928 43.1153 41.2918C43.2497 41.0908 43.3417 40.8645 43.3857 40.6268C43.4296 40.3891 43.4246 40.1449 43.371 39.9091C43.3173 39.6734 43.2162 39.4511 43.0737 39.2558C42.9312 39.0605 42.7503 38.8963 42.5422 38.7733L33.6356 32.711Z" fill="#3474D2"/>
<path d="M14.2222 31.8934C14.206 28.6953 15.058 25.5526 16.6874 22.8006C18.3168 20.0486 20.6625 17.7904 23.4744 16.2667C26.2863 14.7431 29.459 14.0111 32.6543 14.1489C35.8495 14.2866 38.9474 15.2889 41.6178 17.049L43.1289 14.6312C40.5924 12.9697 37.7194 11.8906 34.7164 11.4713C31.7133 11.0521 28.6546 11.3033 25.7601 12.2066C22.8656 13.11 20.2071 14.6433 17.9755 16.6962C15.744 18.7492 13.9949 21.2709 12.8538 24.0802C11.7127 26.8895 11.2079 29.9167 11.3758 32.9442C11.5436 35.9718 12.3799 38.9246 13.8246 41.5905C15.2693 44.2565 17.2865 46.5693 19.7313 48.363C22.1761 50.1567 24.9878 51.3867 27.9645 51.9645L28.4445 49.2445C24.4409 48.4273 20.841 46.2559 18.2507 43.0957C15.6604 39.9355 14.2378 35.9795 14.2222 31.8934Z" fill="#3474D2"/>
</g>
<defs>
<clipPath id="clip0_150_6">
<rect width="64" height="64" fill="white"/>
</clipPath>
</defs>
</svg>
