<svg width="121" height="121" viewBox="0 0 121 121" fill="none" xmlns="http://www.w3.org/2000/svg">
<path d="M54.45 84.7C53.6477 84.7 52.8783 85.0187 52.311 85.586C51.7437 86.1533 51.425 86.9227 51.425 87.725C51.425 88.5273 51.7437 89.2967 52.311 89.864C52.8783 90.4313 53.6477 90.75 54.45 90.75H66.55C67.3523 90.75 68.1217 90.4313 68.689 89.864C69.2563 89.2967 69.575 88.5273 69.575 87.725C69.575 86.9227 69.2563 86.1533 68.689 85.586C68.1217 85.0187 67.3523 84.7 66.55 84.7H54.45ZM42.35 12.1C39.1409 12.1 36.0632 13.3748 33.794 15.644C31.5248 17.9132 30.25 20.9909 30.25 24.2V96.8C30.25 100.009 31.5248 103.087 33.794 105.356C36.0632 107.625 39.1409 108.9 42.35 108.9H78.65C81.8591 108.9 84.9368 107.625 87.206 105.356C89.4752 103.087 90.75 100.009 90.75 96.8V24.2C90.75 20.9909 89.4752 17.9132 87.206 15.644C84.9368 13.3748 81.8591 12.1 78.65 12.1H42.35ZM36.3 24.2C36.3 22.5954 36.9374 21.0566 38.072 19.922C39.2066 18.7874 40.7454 18.15 42.35 18.15H78.65C80.2546 18.15 81.7934 18.7874 82.928 19.922C84.0626 21.0566 84.7 22.5954 84.7 24.2V96.8C84.7 98.4045 84.0626 99.9434 82.928 101.078C81.7934 102.213 80.2546 102.85 78.65 102.85H42.35C40.7454 102.85 39.2066 102.213 38.072 101.078C36.9374 99.9434 36.3 98.4045 36.3 96.8V24.2Z" fill="#333333"/>
</svg>
