<svg width="50" height="50" viewBox="0 0 50 50" fill="none" xmlns="http://www.w3.org/2000/svg">
<path d="M9.375 3.125H40.625C44.0875 3.125 46.875 5.9125 46.875 9.375V40.625C46.875 44.0875 44.0875 46.875 40.625 46.875H9.375C5.9125 46.875 3.125 44.0875 3.125 40.625V9.375C3.125 5.9125 5.9125 3.125 9.375 3.125Z" stroke="#3474D2" stroke-width="3.125" stroke-linecap="round" stroke-linejoin="round"/>
<path d="M12.5 12.5H15.625" stroke="#3474D2" stroke-width="3.125" stroke-linecap="round" stroke-linejoin="round"/>
<path d="M18.75 15.625C17.9212 15.625 17.1263 15.2958 16.5403 14.7097C15.9542 14.1237 15.625 13.3288 15.625 12.5C15.625 11.6712 15.9542 10.8763 16.5403 10.2903C17.1263 9.70424 17.9212 9.375 18.75 9.375C19.1604 9.375 19.5667 9.45583 19.9459 9.61288C20.325 9.76992 20.6695 10.0001 20.9597 10.2903C21.2499 10.5805 21.4801 10.925 21.6371 11.3041C21.7942 11.6833 21.875 12.0896 21.875 12.5C21.875 12.9104 21.7942 13.3167 21.6371 13.6959C21.4801 14.075 21.2499 14.4195 20.9597 14.7097C20.6695 14.9999 20.325 15.2301 19.9459 15.3871C19.5667 15.5442 19.1604 15.625 18.75 15.625Z" stroke="#3474D2" stroke-width="3.125" stroke-linecap="round" stroke-linejoin="round"/>
<path d="M21.875 12.5001L37.5 12.5" stroke="#3474D2" stroke-width="3.125" stroke-linecap="round" stroke-linejoin="round"/>
<path d="M37.5 25H34.375" stroke="#3474D2" stroke-width="3.125" stroke-linecap="round" stroke-linejoin="round"/>
<path d="M31.25 28.125C32.0788 28.125 32.8737 27.7958 33.4597 27.2097C34.0458 26.6237 34.375 25.8288 34.375 25C34.375 24.1712 34.0458 23.3763 33.4597 22.7903C32.8737 22.2042 32.0788 21.875 31.25 21.875C30.4212 21.875 29.6263 22.2042 29.0403 22.7903C28.4542 23.3763 28.125 24.1712 28.125 25C28.125 25.8288 28.4542 26.6237 29.0403 27.2097C29.6263 27.7958 30.4212 28.125 31.25 28.125Z" stroke="#3474D2" stroke-width="3.125" stroke-linecap="round" stroke-linejoin="round"/>
<path d="M28.125 25.0001L12.5 25" stroke="#3474D2" stroke-width="3.125" stroke-linecap="round" stroke-linejoin="round"/>
<path d="M12.5 37.5H15.625" stroke="#3474D2" stroke-width="3.125" stroke-linecap="round" stroke-linejoin="round"/>
<path d="M18.75 40.625C17.9212 40.625 17.1263 40.2958 16.5403 39.7097C15.9542 39.1237 15.625 38.3288 15.625 37.5C15.625 36.6712 15.9542 35.8763 16.5403 35.2903C17.1263 34.7042 17.9212 34.375 18.75 34.375C19.1604 34.375 19.5667 34.4558 19.9459 34.6129C20.325 34.7699 20.6695 35.0001 20.9597 35.2903C21.2499 35.5805 21.4801 35.925 21.6371 36.3041C21.7942 36.6833 21.875 37.0896 21.875 37.5C21.875 37.9104 21.7942 38.3167 21.6371 38.6959C21.4801 39.075 21.2499 39.4195 20.9597 39.7097C20.6695 39.9999 20.325 40.2301 19.9459 40.3871C19.5667 40.5442 19.1604 40.625 18.75 40.625Z" stroke="#3474D2" stroke-width="3.125" stroke-linecap="round" stroke-linejoin="round"/>
<path d="M21.875 37.5001L37.5 37.5" stroke="#3474D2" stroke-width="3.125" stroke-linecap="round" stroke-linejoin="round"/>
</svg>
