<svg width="50" height="50" viewBox="0 0 50 50" fill="none" xmlns="http://www.w3.org/2000/svg">
<path d="M21.3396 33.9874L12.5 25.1457L15.4458 22.1999L21.3396 28.0916L33.1229 16.3062L36.0708 19.2541L21.3396 33.9874Z" fill="#3474D2"/>
<path fill-rule="evenodd" clip-rule="evenodd" d="M2.08334 24.9999C2.08334 12.3437 12.3438 2.08325 25 2.08325C37.6563 2.08325 47.9167 12.3437 47.9167 24.9999C47.9167 37.6562 37.6563 47.9166 25 47.9166C12.3438 47.9166 2.08334 37.6562 2.08334 24.9999ZM25 43.7499C22.5377 43.7499 20.0996 43.2649 17.8247 42.3227C15.5498 41.3804 13.4829 39.9993 11.7418 38.2582C10.0007 36.5171 8.61954 34.4501 7.67727 32.1752C6.73499 29.9004 6.25001 27.4622 6.25001 24.9999C6.25001 22.5376 6.73499 20.0995 7.67727 17.8246C8.61954 15.5497 10.0007 13.4828 11.7418 11.7417C13.4829 10.0006 15.5498 8.61945 17.8247 7.67718C20.0996 6.7349 22.5377 6.24992 25 6.24992C29.9728 6.24992 34.742 8.22536 38.2583 11.7417C41.7746 15.258 43.75 20.0271 43.75 24.9999C43.75 29.9727 41.7746 34.7419 38.2583 38.2582C34.742 41.7745 29.9728 43.7499 25 43.7499Z" fill="#3474D2"/>
</svg>
