<svg width="121" height="121" viewBox="0 0 121 121" fill="none" xmlns="http://www.w3.org/2000/svg">
<path d="M105.875 98.3125H96.3935C101.2 92.4714 104.324 85.4307 105.429 77.9473C106.534 70.4639 105.578 62.8209 102.665 55.8399C99.7517 48.8588 94.9908 42.8039 88.894 38.3259C82.7973 33.848 75.5954 31.1164 68.0625 30.4249V15.125C68.0625 13.1193 67.2657 11.1957 65.8475 9.7775C64.4292 8.35926 62.5057 7.5625 60.5 7.5625H37.8125C35.8068 7.5625 33.8833 8.35926 32.465 9.7775C31.0468 11.1957 30.25 13.1193 30.25 15.125V64.2812C30.25 66.2869 31.0468 68.2105 32.465 69.6287C33.8833 71.047 35.8068 71.8438 37.8125 71.8438H60.5C62.5057 71.8438 64.4292 71.047 65.8475 69.6287C67.2657 68.2105 68.0625 66.2869 68.0625 64.2812V38.0299C74.7336 38.7776 81.0346 41.4816 86.1727 45.8017C91.3108 50.1218 95.0565 55.865 96.9385 62.3087C98.8204 68.7524 98.7547 75.6087 96.7494 82.0151C94.7441 88.4215 90.889 94.0918 85.6689 98.3125H15.125C14.1222 98.3125 13.1604 98.7109 12.4513 99.42C11.7421 100.129 11.3438 101.091 11.3438 102.094C11.3438 103.097 11.7421 104.058 12.4513 104.768C13.1604 105.477 14.1222 105.875 15.125 105.875H105.875C106.878 105.875 107.84 105.477 108.549 104.768C109.258 104.058 109.656 103.097 109.656 102.094C109.656 101.091 109.258 100.129 108.549 99.42C107.84 98.7109 106.878 98.3125 105.875 98.3125ZM60.5 64.2812H37.8125V15.125H60.5V64.2812ZM34.0312 86.9688C33.0284 86.9688 32.0666 86.5704 31.3575 85.8613C30.6484 85.1521 30.25 84.1904 30.25 83.1875C30.25 82.1846 30.6484 81.2229 31.3575 80.5137C32.0666 79.8046 33.0284 79.4062 34.0312 79.4062H64.2812C65.2841 79.4062 66.2459 79.8046 66.955 80.5137C67.6641 81.2229 68.0625 82.1846 68.0625 83.1875C68.0625 84.1904 67.6641 85.1521 66.955 85.8613C66.2459 86.5704 65.2841 86.9688 64.2812 86.9688H34.0312Z" fill="#333333"/>
</svg>
