<svg width="121" height="121" viewBox="0 0 121 121" fill="none" xmlns="http://www.w3.org/2000/svg">
<path opacity="0.5" d="M60.5 80.6667C31.46 80.6667 26.3175 51.7275 25.41 28.7678C25.1529 22.385 25.0268 19.1886 27.4267 16.2392C29.8215 13.2848 32.6902 12.8008 38.4326 11.8328C45.727 10.6373 53.1084 10.0521 60.5 10.0833C69.4943 10.0833 76.9005 10.8749 82.5674 11.8328C88.3098 12.8008 91.1785 13.2848 93.5784 16.2392C95.9782 19.1936 95.8471 22.385 95.595 28.7678C94.6875 51.7225 89.545 80.6667 60.505 80.6667" fill="#3474D2"/>
<path d="M88.935 62.6276L103.137 54.7374C106.929 52.63 108.824 51.5763 109.873 49.8016C110.917 48.027 110.917 45.859 110.917 41.5182V41.1501C110.917 35.8917 110.917 33.2599 109.49 31.2785C108.063 29.2972 105.567 28.4653 100.576 26.8015L95.7917 25.2084L95.7059 25.6369C95.6807 26.5898 95.6404 27.6284 95.595 28.7678C95.1514 39.9855 93.6943 52.63 88.94 62.6276M25.41 28.7678C25.8486 39.9855 27.3057 52.63 32.065 62.6276L17.8626 54.7374C14.0713 52.63 12.1706 51.5763 11.127 49.8016C10.0833 48.027 10.0833 45.859 10.0833 41.5182V41.1501C10.0833 35.8917 10.0833 33.2599 11.5101 31.2785C12.9369 29.2972 15.4325 28.4653 20.4238 26.8015L25.2083 25.2084L25.294 25.647C25.3192 26.5948 25.3596 27.6334 25.405 28.7728" fill="#3474D2"/>
<path fill-rule="evenodd" clip-rule="evenodd" d="M26.4688 110.917C26.4688 109.914 26.8671 108.952 27.5763 108.243C28.2854 107.534 29.2471 107.135 30.25 107.135H90.75C91.7528 107.135 92.7146 107.534 93.4238 108.243C94.1329 108.952 94.5312 109.914 94.5312 110.917C94.5312 111.919 94.1329 112.881 93.4238 113.59C92.7146 114.299 91.7528 114.698 90.75 114.698H30.25C29.2471 114.698 28.2854 114.299 27.5763 113.59C26.8671 112.881 26.4688 111.919 26.4688 110.917Z" fill="#3474D2"/>
<path opacity="0.5" d="M77.9341 107.135H43.0659L44.5633 98.3125C44.7917 97.17 45.4087 96.1419 46.3094 95.4029C47.2102 94.6639 48.339 94.2597 49.5041 94.259H71.4908C72.6559 94.2597 73.7848 94.6639 74.6856 95.4029C75.5863 96.1419 76.2033 97.17 76.4317 98.3125L77.9341 107.135Z" fill="#3474D2"/>
<path d="M60.5 80.6667C59.1892 80.6667 57.9287 80.6112 56.7188 80.4952V94.259H64.2812V80.4952C63.0242 80.6117 61.7624 80.6689 60.5 80.6667Z" fill="#3474D2"/>
</svg>
