<svg width="121" height="121" viewBox="0 0 121 121" fill="none" xmlns="http://www.w3.org/2000/svg">
<mask id="mask0_131_20" style="mask-type:luminance" maskUnits="userSpaceOnUse" x="8" y="18" width="105" height="88">
<path d="M63.0208 100.833H17.6458C15.6401 100.833 13.7166 100.037 12.2983 98.6183C10.8801 97.2001 10.0833 95.2766 10.0833 93.2709V27.7292C10.0833 25.7235 10.8801 23.7999 12.2983 22.3817C13.7166 20.9634 15.6401 20.1667 17.6458 20.1667H103.354C105.36 20.1667 107.283 20.9634 108.702 22.3817C110.12 23.7999 110.917 25.7235 110.917 27.7292V62.8721" stroke="white" stroke-width="3.33333" stroke-linecap="round" stroke-linejoin="round"/>
<path d="M10.0833 27.7292C10.0833 25.7235 10.8801 23.7999 12.2983 22.3817C13.7166 20.9634 15.6401 20.1667 17.6458 20.1667H103.354C105.36 20.1667 107.283 20.9634 108.702 22.3817C110.12 23.7999 110.917 25.7235 110.917 27.7292V50.4167H10.0833V27.7292Z" fill="#555555" stroke="white" stroke-width="3.33333"/>
<path d="M80.6667 88.2292H110.917M95.7917 73.1042V103.354" stroke="white" stroke-width="3.33333" stroke-linecap="round" stroke-linejoin="round"/>
<path d="M20.1667 35.2917C20.1667 32.5073 22.4239 30.25 25.2083 30.25C27.9928 30.25 30.25 32.5073 30.25 35.2917C30.25 38.0761 27.9928 40.3334 25.2083 40.3334C22.4239 40.3334 20.1667 38.0761 20.1667 35.2917Z" fill="white"/>
<path d="M35.2917 35.2917C35.2917 32.5073 37.5489 30.25 40.3333 30.25C43.1178 30.25 45.375 32.5073 45.375 35.2917C45.375 38.0761 43.1178 40.3334 40.3333 40.3334C37.5489 40.3334 35.2917 38.0761 35.2917 35.2917Z" fill="white"/>
</mask>
<g mask="url(#mask0_131_20)">
<path d="M0 0H121V121H0V0Z" fill="#333333"/>
</g>
</svg>
