<svg width="50" height="50" viewBox="0 0 50 50" fill="none" xmlns="http://www.w3.org/2000/svg">
<path d="M31.25 35.4167C30.8379 35.4167 30.4352 35.5389 30.0926 35.7679C29.7499 35.9968 29.4829 36.3221 29.3252 36.7028C29.1676 37.0835 29.1263 37.5024 29.2067 37.9065C29.2871 38.3106 29.4855 38.6819 29.7768 38.9732C30.0682 39.2646 30.4394 39.463 30.8436 39.5434C31.2477 39.6238 31.6666 39.5825 32.0472 39.4248C32.4279 39.2671 32.7533 39.0001 32.9822 38.6575C33.2111 38.3149 33.3333 37.9121 33.3333 37.5001C33.3333 36.9475 33.1138 36.4176 32.7231 36.0269C32.3324 35.6362 31.8025 35.4167 31.25 35.4167ZM18.75 35.4167H12.5C11.9475 35.4167 11.4176 35.6362 11.0269 36.0269C10.6361 36.4176 10.4167 36.9475 10.4167 37.5001C10.4167 38.0526 10.6361 38.5825 11.0269 38.9732C11.4176 39.3639 11.9475 39.5834 12.5 39.5834H18.75C19.3025 39.5834 19.8324 39.3639 20.2231 38.9732C20.6138 38.5825 20.8333 38.0526 20.8333 37.5001C20.8333 36.9475 20.6138 36.4176 20.2231 36.0269C19.8324 35.6362 19.3025 35.4167 18.75 35.4167ZM37.5 35.4167C37.0879 35.4167 36.6852 35.5389 36.3425 35.7679C35.9999 35.9968 35.7329 36.3221 35.5752 36.7028C35.4176 37.0835 35.3763 37.5024 35.4567 37.9065C35.5371 38.3106 35.7355 38.6819 36.0268 38.9732C36.3182 39.2646 36.6894 39.463 37.0935 39.5434C37.4977 39.6238 37.9166 39.5825 38.2972 39.4248C38.6779 39.2671 39.0033 39.0001 39.2322 38.6575C39.4611 38.3149 39.5833 37.9121 39.5833 37.5001C39.5833 36.9475 39.3638 36.4176 38.9731 36.0269C38.5824 35.6362 38.0525 35.4167 37.5 35.4167ZM31.25 22.9167C30.8379 22.9167 30.4352 23.0389 30.0926 23.2679C29.7499 23.4968 29.4829 23.8221 29.3252 24.2028C29.1676 24.5835 29.1263 25.0024 29.2067 25.4065C29.2871 25.8106 29.4855 26.1819 29.7768 26.4732C30.0682 26.7646 30.4394 26.963 30.8436 27.0434C31.2477 27.1238 31.6666 27.0825 32.0472 26.9248C32.4279 26.7671 32.7533 26.5001 32.9822 26.1575C33.2111 25.8149 33.3333 25.4121 33.3333 25.0001C33.3333 24.4475 33.1138 23.9176 32.7231 23.5269C32.3324 23.1362 31.8025 22.9167 31.25 22.9167ZM18.75 22.9167H12.5C11.9475 22.9167 11.4176 23.1362 11.0269 23.5269C10.6361 23.9176 10.4167 24.4475 10.4167 25.0001C10.4167 25.5526 10.6361 26.0825 11.0269 26.4732C11.4176 26.8639 11.9475 27.0834 12.5 27.0834H18.75C19.3025 27.0834 19.8324 26.8639 20.2231 26.4732C20.6138 26.0825 20.8333 25.5526 20.8333 25.0001C20.8333 24.4475 20.6138 23.9176 20.2231 23.5269C19.8324 23.1362 19.3025 22.9167 18.75 22.9167ZM37.5 10.4167C37.0879 10.4167 36.6852 10.5389 36.3425 10.7679C35.9999 10.9968 35.7329 11.3221 35.5752 11.7028C35.4176 12.0835 35.3763 12.5024 35.4567 12.9065C35.5371 13.3106 35.7355 13.6819 36.0268 13.9732C36.3182 14.2646 36.6894 14.463 37.0935 14.5434C37.4977 14.6238 37.9166 14.5825 38.2972 14.4248C38.6779 14.2671 39.0033 14.0001 39.2322 13.6575C39.4611 13.3149 39.5833 12.9121 39.5833 12.5001C39.5833 11.9475 39.3638 11.4176 38.9731 11.0269C38.5824 10.6362 38.0525 10.4167 37.5 10.4167ZM37.5 22.9167C37.0879 22.9167 36.6852 23.0389 36.3425 23.2679C35.9999 23.4968 35.7329 23.8221 35.5752 24.2028C35.4176 24.5835 35.3763 25.0024 35.4567 25.4065C35.5371 25.8106 35.7355 26.1819 36.0268 26.4732C36.3182 26.7646 36.6894 26.963 37.0935 27.0434C37.4977 27.1238 37.9166 27.0825 38.2972 26.9248C38.6779 26.7671 39.0033 26.5001 39.2322 26.1575C39.4611 25.8149 39.5833 25.4121 39.5833 25.0001C39.5833 24.4475 39.3638 23.9176 38.9731 23.5269C38.5824 23.1362 38.0525 22.9167 37.5 22.9167ZM45.8333 10.4167C45.8333 8.75914 45.1748 7.16943 44.0027 5.99733C42.8306 4.82523 41.2409 4.16675 39.5833 4.16675H10.4167C8.75905 4.16675 7.16934 4.82523 5.99724 5.99733C4.82514 7.16943 4.16666 8.75914 4.16666 10.4167V14.5834C4.17585 16.1252 4.7546 17.6092 5.79166 18.7501C4.7546 19.891 4.17585 21.375 4.16666 22.9167V27.0834C4.17585 28.6252 4.7546 30.1092 5.79166 31.2501C4.7546 32.391 4.17585 33.875 4.16666 35.4167V39.5834C4.16666 41.241 4.82514 42.8307 5.99724 44.0028C7.16934 45.1749 8.75905 45.8334 10.4167 45.8334H39.5833C41.2409 45.8334 42.8306 45.1749 44.0027 44.0028C45.1748 42.8307 45.8333 41.241 45.8333 39.5834V35.4167C45.8241 33.875 45.2454 32.391 44.2083 31.2501C45.2454 30.1092 45.8241 28.6252 45.8333 27.0834V22.9167C45.8241 21.375 45.2454 19.891 44.2083 18.7501C45.2454 17.6092 45.8241 16.1252 45.8333 14.5834V10.4167ZM41.6667 39.5834C41.6667 40.1359 41.4472 40.6659 41.0565 41.0566C40.6658 41.4473 40.1359 41.6667 39.5833 41.6667H10.4167C9.86412 41.6667 9.33422 41.4473 8.94352 41.0566C8.55282 40.6659 8.33332 40.1359 8.33332 39.5834V35.4167C8.33332 34.8642 8.55282 34.3343 8.94352 33.9436C9.33422 33.5529 9.86412 33.3334 10.4167 33.3334H39.5833C40.1359 33.3334 40.6658 33.5529 41.0565 33.9436C41.4472 34.3343 41.6667 34.8642 41.6667 35.4167V39.5834ZM41.6667 27.0834C41.6667 27.6359 41.4472 28.1659 41.0565 28.5566C40.6658 28.9473 40.1359 29.1667 39.5833 29.1667H10.4167C9.86412 29.1667 9.33422 28.9473 8.94352 28.5566C8.55282 28.1659 8.33332 27.6359 8.33332 27.0834V22.9167C8.33332 22.3642 8.55282 21.8343 8.94352 21.4436C9.33422 21.0529 9.86412 20.8334 10.4167 20.8334H39.5833C40.1359 20.8334 40.6658 21.0529 41.0565 21.4436C41.4472 21.8343 41.6667 22.3642 41.6667 22.9167V27.0834ZM41.6667 14.5834C41.6667 15.1359 41.4472 15.6659 41.0565 16.0566C40.6658 16.4473 40.1359 16.6667 39.5833 16.6667H10.4167C9.86412 16.6667 9.33422 16.4473 8.94352 16.0566C8.55282 15.6659 8.33332 15.1359 8.33332 14.5834V10.4167C8.33332 9.86421 8.55282 9.33431 8.94352 8.94361C9.33422 8.55291 9.86412 8.33341 10.4167 8.33341H39.5833C40.1359 8.33341 40.6658 8.55291 41.0565 8.94361C41.4472 9.33431 41.6667 9.86421 41.6667 10.4167V14.5834ZM31.25 10.4167C30.8379 10.4167 30.4352 10.5389 30.0926 10.7679C29.7499 10.9968 29.4829 11.3221 29.3252 11.7028C29.1676 12.0835 29.1263 12.5024 29.2067 12.9065C29.2871 13.3106 29.4855 13.6819 29.7768 13.9732C30.0682 14.2646 30.4394 14.463 30.8436 14.5434C31.2477 14.6238 31.6666 14.5825 32.0472 14.4248C32.4279 14.2671 32.7533 14.0001 32.9822 13.6575C33.2111 13.3149 33.3333 12.9121 33.3333 12.5001C33.3333 11.9475 33.1138 11.4176 32.7231 11.0269C32.3324 10.6362 31.8025 10.4167 31.25 10.4167ZM18.75 10.4167H12.5C11.9475 10.4167 11.4176 10.6362 11.0269 11.0269C10.6361 11.4176 10.4167 11.9475 10.4167 12.5001C10.4167 13.0526 10.6361 13.5825 11.0269 13.9732C11.4176 14.3639 11.9475 14.5834 12.5 14.5834H18.75C19.3025 14.5834 19.8324 14.3639 20.2231 13.9732C20.6138 13.5825 20.8333 13.0526 20.8333 12.5001C20.8333 11.9475 20.6138 11.4176 20.2231 11.0269C19.8324 10.6362 19.3025 10.4167 18.75 10.4167Z" fill="#3474D2"/>
</svg>
